<svg width="285" height="142" viewBox="0 0 285 142" fill="none" xmlns="http://www.w3.org/2000/svg">
<path d="M36.4 69.4C42.2 67.6 45.6 63.6 45.6 55.6V19C45.6 6.8 39.6 0.99999 27.6 0.99999H0.8V141H27.8C39.8 141 45.8 135.2 45.8 123V81.4C45.8 74.6 42.8 71 36.4 69.4ZM25.4 19.2V60.8C25.4 61.6 25 62.2 24 62.2H21.2V17.6H24C25 17.6 25.4 18 25.4 19.2ZM21.2 77.6H24C25.2 77.6 25.6 78.2 25.6 79V123C25.6 124 25.2 124.4 24 124.4H21.2V77.6ZM94.8609 141L83.8609 0.99999H57.6609L46.6609 141H64.2609L65.4609 118H73.6609L74.8609 141H94.8609ZM69.4609 40.8L72.6609 101H66.2609L69.4609 40.8ZM96.8938 141H121.694C135.494 141 142.094 134.4 142.094 120.6V21.4C142.094 7.59999 135.494 0.99999 121.694 0.99999H96.8938V141ZM117.294 17.8H119.494C121.094 17.8 121.694 18.6 121.694 20V121.8C121.694 123.4 121.094 124.2 119.494 124.2H117.294V17.8ZM191.345 141L180.345 0.99999H154.145L143.145 141H160.745L161.945 118H170.145L171.345 141H191.345ZM165.945 40.8L169.145 101H162.745L165.945 40.8ZM229.592 68.6L214.392 57.2C213.192 56.4 212.792 55.6 212.792 54V18.2C212.792 17.2 213.192 16.8 214.192 16.8H215.392C216.592 16.8 216.992 17.2 216.992 18.2V57H236.792V18.2C236.792 6.2 230.992 0.199989 218.792 0.199989H210.592C198.592 0.199989 192.592 6.2 192.592 18.2V55.6C192.592 62.6 194.392 67.2 200.192 71.6L215.192 83C216.392 83.8 216.992 84.6 216.992 86.2V123.8C216.992 124.8 216.392 125.2 215.392 125.2H213.992C212.992 125.2 212.392 124.8 212.392 123.8V83H192.592V123.8C192.592 135.8 198.592 141.8 210.592 141.8H218.992C231.192 141.8 236.992 135.8 236.992 123.8V84.6C236.992 77.8 235.392 73 229.592 68.6ZM277.248 68.6L262.048 57.2C260.848 56.4 260.448 55.6 260.448 54V18.2C260.448 17.2 260.848 16.8 261.848 16.8H263.048C264.248 16.8 264.648 17.2 264.648 18.2V57H284.448V18.2C284.448 6.2 278.648 0.199989 266.448 0.199989H258.248C246.248 0.199989 240.248 6.2 240.248 18.2V55.6C240.248 62.6 242.048 67.2 247.848 71.6L262.848 83C264.048 83.8 264.648 84.6 264.648 86.2V123.8C264.648 124.8 264.048 125.2 263.048 125.2H261.648C260.648 125.2 260.048 124.8 260.048 123.8V83H240.248V123.8C240.248 135.8 246.248 141.8 258.248 141.8H266.648C278.848 141.8 284.648 135.8 284.648 123.8V84.6C284.648 77.8 283.048 73 277.248 68.6Z" fill="#D72833" style="mix-blend-mode:difference"/>
</svg>
